<svg xmlns="http://www.w3.org/2000/svg" width="6000" viewBox="60 0 1140 320" overflow="hidden">
  <!-- https://getwaves.io/ -->
  <path fill="#304268" transform="translate(0,160) scale(1,-1) translate(0,-160)" d="M0,96L60,101.3C120,107,240,117,360,144C480,171,600,213,720,213.3C840,213,960,171,1080,176C1200,181,1320,235,1380,261.3L1440,288L1440,320L1380,320C1320,320,1200,320,1080,320C960,320,840,320,720,320C600,320,480,320,360,320C240,320,120,320,60,320L0,320Z"></path>
  <path fill="#fff" fill-opacity="0.05" transform="translate(60,120) scale(0.8,-0.8) translate(0,-160)" d="M0,96L60,101.3C120,107,240,117,360,144C480,171,600,213,720,213.3C840,213,960,171,1080,176C1200,181,1320,235,1380,261.3L1440,288L1440,320L1380,320C1320,320,1200,320,1080,320C960,320,840,320,720,320C600,320,480,320,360,320C240,320,120,320,60,320L0,320Z"></path>
  <path fill="#000" fill-opacity="0.1" transform="translate(-800,60) scale(1.5,-1.5) translate(0,-160)" d="M0,96L60,101.3C120,107,240,117,360,144C480,171,600,213,720,213.3C840,213,960,171,1080,176C1200,181,1320,235,1380,261.3L1440,288L1440,320L1380,320C1320,320,1200,320,1080,320C960,320,840,320,720,320C600,320,480,320,360,320C240,320,120,320,60,320L0,320Z"></path>
</svg>
